<mxfile modified="2022-04-02T06:06:19.681Z" host="app.diagrams.net" agent="5.0 (Macintosh; Intel Mac OS X 10_14_6) AppleWebKit/537.36 (KHTML, like Gecko) Chrome/98.0.4758.102 Safari/537.36" etag="b0nt61nEUmFS9nUc0o0V" version="17.4.0" type="github">
  <diagram id="f106602c-feb2-e66a-4537-3a34d633f6aa" name="Page-1">
    <mxGraphModel dx="1395" dy="767" grid="1" gridSize="10" guides="1" tooltips="1" connect="1" arrows="1" fold="1" page="1" pageScale="1" pageWidth="1169" pageHeight="827" background="none" math="0" shadow="0">
      <root>
        <mxCell id="0" />
        <mxCell id="1" parent="0" />
        <mxCell id="14" value="&lt;b&gt;Google &lt;/b&gt;Cloud Platform" style="fillColor=#F6F6F6;strokeColor=none;shadow=0;gradientColor=none;fontSize=14;align=left;spacing=10;fontColor=#717171;9E9E9E;verticalAlign=top;spacingTop=-4;fontStyle=0;spacingLeft=40;html=1;container=0;" parent="1" vertex="1">
          <mxGeometry x="200" y="105" width="1094" height="665" as="geometry" />
        </mxCell>
        <mxCell id="U_9ZeLoZhMn-8x-L0dgF-110" value="" style="fillColor=none;strokeColor=default;shadow=0;gradientColor=none;fontSize=14;align=left;spacing=10;fontColor=#717171;9E9E9E;verticalAlign=top;spacingTop=-4;fontStyle=0;spacingLeft=40;html=1;container=0;dashed=1;dashPattern=1 2;" vertex="1" parent="1">
          <mxGeometry x="241" y="223" width="240" height="216.35" as="geometry" />
        </mxCell>
        <mxCell id="_XGDpj7YCTwnzZgyufAH-45" value="" style="strokeColor=#dddddd;shadow=1;strokeWidth=1;rounded=1;absoluteArcSize=1;arcSize=2;fontColor=#1A1A1A;" parent="1" vertex="1">
          <mxGeometry x="255.35000000000002" y="274" width="215.93" height="45" as="geometry" />
        </mxCell>
        <mxCell id="_XGDpj7YCTwnzZgyufAH-46" value="&lt;span style=&quot;color: rgb(0 , 0 , 0)&quot;&gt;mydomain.com&lt;br&gt;&lt;/span&gt;Cloud DNS&lt;span style=&quot;color: rgb(0 , 0 , 0)&quot;&gt;&lt;br&gt;&lt;/span&gt;" style="sketch=0;dashed=0;connectable=0;html=1;fillColor=#5184F3;strokeColor=none;shape=mxgraph.gcp2.hexIcon;prIcon=cloud_dns;part=1;labelPosition=right;verticalLabelPosition=middle;align=left;verticalAlign=middle;spacingLeft=5;fontColor=#999999;fontSize=12;" parent="_XGDpj7YCTwnzZgyufAH-45" vertex="1">
          <mxGeometry y="0.5" width="44" height="39" relative="1" as="geometry">
            <mxPoint x="5" y="-19.5" as="offset" />
          </mxGeometry>
        </mxCell>
        <mxCell id="U_9ZeLoZhMn-8x-L0dgF-26" value="" style="fillColor=#F6F6F6;strokeColor=default;shadow=0;gradientColor=none;fontSize=14;align=left;spacing=10;fontColor=#717171;9E9E9E;verticalAlign=top;spacingTop=-4;fontStyle=0;spacingLeft=40;html=1;container=0;dashed=1;dashPattern=1 2;" vertex="1" parent="1">
          <mxGeometry x="515" y="180" width="735" height="580" as="geometry" />
        </mxCell>
        <mxCell id="2" value="Architecture: Linebot Application on GKE" style="fillColor=#4DA1F5;strokeColor=none;shadow=1;gradientColor=none;fontSize=14;align=left;spacingLeft=50;fontColor=#ffffff;html=1;" parent="1" vertex="1">
          <mxGeometry x="134.28" y="60" width="1163.43" height="40" as="geometry" />
        </mxCell>
        <mxCell id="18" value="" style="fontSize=12;html=1;endArrow=blockThin;endFill=1;rounded=0;strokeWidth=2;endSize=4;startSize=4;dashed=0;strokeColor=#4284F3;startArrow=blockThin;startFill=1;entryX=0;entryY=0.5;entryDx=0;entryDy=0;exitX=1;exitY=0.5;exitDx=0;exitDy=0;" parent="1" edge="1" target="_XGDpj7YCTwnzZgyufAH-31" source="6">
          <mxGeometry width="100" relative="1" as="geometry">
            <mxPoint x="149" y="308" as="sourcePoint" />
            <mxPoint x="231" y="301" as="targetPoint" />
          </mxGeometry>
        </mxCell>
        <mxCell id="6" value="Client" style="strokeColor=#dddddd;fillColor=#ffffff;shadow=1;strokeWidth=1;rounded=1;absoluteArcSize=1;arcSize=2;labelPosition=center;verticalLabelPosition=middle;align=center;verticalAlign=bottom;spacingLeft=0;fontColor=#999999;fontSize=12;whiteSpace=wrap;spacingBottom=2;html=1;" parent="1" vertex="1">
          <mxGeometry x="118" y="122" width="70" height="85" as="geometry" />
        </mxCell>
        <mxCell id="7" value="" style="dashed=0;html=1;fillColor=#757575;strokeColor=none;shape=mxgraph.gcp2.phone;part=1;" parent="6" vertex="1">
          <mxGeometry x="0.5" width="32" height="50" relative="1" as="geometry">
            <mxPoint x="-16" y="10" as="offset" />
          </mxGeometry>
        </mxCell>
        <mxCell id="15" value="" style="shape=mxgraph.gcp2.google_cloud_platform;fillColor=#F6F6F6;strokeColor=none;shadow=0;gradientColor=none;" parent="1" vertex="1">
          <mxGeometry x="214.36" y="114.7" width="23" height="20" as="geometry">
            <mxPoint x="20" y="10" as="offset" />
          </mxGeometry>
        </mxCell>
        <mxCell id="_XGDpj7YCTwnzZgyufAH-27" value="" style="strokeColor=#dddddd;shadow=1;strokeWidth=1;rounded=1;absoluteArcSize=1;arcSize=2;" parent="1" vertex="1">
          <mxGeometry x="252.85000000000002" y="359" width="223.15" height="56" as="geometry" />
        </mxCell>
        <mxCell id="_XGDpj7YCTwnzZgyufAH-28" value="&lt;span style=&quot;color: rgb(0 , 0 , 0)&quot;&gt;www.xxx.yyy.zzz&lt;br&gt;&lt;/span&gt;Cloud External IP Addresses&lt;span style=&quot;color: rgb(0 , 0 , 0)&quot;&gt;&lt;br&gt;&lt;/span&gt;" style="sketch=0;dashed=0;connectable=0;html=1;fillColor=#5184F3;strokeColor=none;shape=mxgraph.gcp2.hexIcon;prIcon=cloud_external_ip_addresses;part=1;labelPosition=right;verticalLabelPosition=middle;align=left;verticalAlign=middle;spacingLeft=5;fontColor=#999999;fontSize=12;" parent="_XGDpj7YCTwnzZgyufAH-27" vertex="1">
          <mxGeometry y="0.5" width="44" height="39" relative="1" as="geometry">
            <mxPoint x="5" y="-19.5" as="offset" />
          </mxGeometry>
        </mxCell>
        <mxCell id="U_9ZeLoZhMn-8x-L0dgF-97" value="" style="edgeStyle=none;rounded=0;orthogonalLoop=1;jettySize=auto;html=1;fontColor=#1A1A1A;entryX=0.5;entryY=0;entryDx=0;entryDy=0;exitX=0.5;exitY=1;exitDx=0;exitDy=0;" edge="1" parent="1" source="_XGDpj7YCTwnzZgyufAH-31" target="_XGDpj7YCTwnzZgyufAH-45">
          <mxGeometry relative="1" as="geometry">
            <mxPoint x="379.18537964984034" y="170.28965517241386" as="sourcePoint" />
          </mxGeometry>
        </mxCell>
        <mxCell id="_XGDpj7YCTwnzZgyufAH-31" value="" style="strokeColor=#dddddd;shadow=1;strokeWidth=1;rounded=1;absoluteArcSize=1;arcSize=2;" parent="1" vertex="1">
          <mxGeometry x="274.9987755102041" y="134.70344827586206" width="194.69387755102042" height="59.58620689655172" as="geometry" />
        </mxCell>
        <mxCell id="_XGDpj7YCTwnzZgyufAH-32" value="&lt;font color=&quot;#1a1a1a&quot;&gt;managed-cert-ingress&lt;/font&gt;&lt;br&gt;Cloud Load Balancing" style="sketch=0;dashed=0;connectable=0;html=1;fillColor=#5184F3;strokeColor=none;shape=mxgraph.gcp2.hexIcon;prIcon=cloud_load_balancing;part=1;labelPosition=right;verticalLabelPosition=middle;align=left;verticalAlign=middle;spacingLeft=5;fontColor=#999999;fontSize=12;" parent="_XGDpj7YCTwnzZgyufAH-31" vertex="1">
          <mxGeometry y="0.5" width="44" height="39" relative="1" as="geometry">
            <mxPoint x="5" y="-19.5" as="offset" />
          </mxGeometry>
        </mxCell>
        <mxCell id="25" value="" style="fontSize=12;html=1;endArrow=blockThin;endFill=1;rounded=0;strokeWidth=2;endSize=4;startSize=4;dashed=0;strokeColor=#4284F3;startArrow=blockThin;startFill=1;entryX=0.5;entryY=0;entryDx=0;entryDy=0;exitX=1;exitY=0.5;exitDx=0;exitDy=0;" parent="1" source="_XGDpj7YCTwnzZgyufAH-31" target="U_9ZeLoZhMn-8x-L0dgF-42" edge="1">
          <mxGeometry width="100" relative="1" as="geometry">
            <mxPoint x="241.36734693877554" y="222.02758620689656" as="sourcePoint" />
            <mxPoint x="594.3061224489797" y="213.09655172413784" as="targetPoint" />
          </mxGeometry>
        </mxCell>
        <mxCell id="U_9ZeLoZhMn-8x-L0dgF-43" value="" style="dashed=1;rounded=1;absoluteArcSize=1;arcSize=20;html=1;verticalAlign=top;align=left;spacingTop=5;spacingLeft=10;fontColor=#1A1A1A;" vertex="1" parent="1">
          <mxGeometry x="530" y="226" width="530" height="395" as="geometry" />
        </mxCell>
        <mxCell id="U_9ZeLoZhMn-8x-L0dgF-27" value="" style="strokeColor=#dddddd;shadow=1;strokeWidth=1;rounded=1;absoluteArcSize=1;arcSize=2;" vertex="1" parent="1">
          <mxGeometry x="1030" y="138.41" width="230" height="59.59" as="geometry" />
        </mxCell>
        <mxCell id="U_9ZeLoZhMn-8x-L0dgF-28" value="&lt;font color=&quot;#000000&quot;&gt;linebot-gke&lt;/font&gt;&lt;br&gt;Kubernetes Engine" style="sketch=0;dashed=0;connectable=0;html=1;fillColor=#5184F3;strokeColor=none;shape=mxgraph.gcp2.hexIcon;prIcon=container_engine;part=1;labelPosition=right;verticalLabelPosition=middle;align=left;verticalAlign=middle;spacingLeft=5;fontColor=#999999;fontSize=12;" vertex="1" parent="U_9ZeLoZhMn-8x-L0dgF-27">
          <mxGeometry y="0.5" width="44" height="39" relative="1" as="geometry">
            <mxPoint x="5" y="-19.5" as="offset" />
          </mxGeometry>
        </mxCell>
        <mxCell id="U_9ZeLoZhMn-8x-L0dgF-36" value="" style="group" vertex="1" connectable="0" parent="1">
          <mxGeometry x="531.9961224489796" y="333.00344827586207" width="244.87387755102043" height="65.99655172413793" as="geometry" />
        </mxCell>
        <mxCell id="U_9ZeLoZhMn-8x-L0dgF-30" value="Service(NodePort)&#xa;linebot-nginx" style="strokeColor=#dddddd;shadow=1;strokeWidth=1;rounded=1;absoluteArcSize=1;arcSize=2;fontColor=#1A1A1A;" vertex="1" parent="U_9ZeLoZhMn-8x-L0dgF-36">
          <mxGeometry x="11" y="-29" width="183.8775510204082" height="59.58620689655172" as="geometry" />
        </mxCell>
        <mxCell id="U_9ZeLoZhMn-8x-L0dgF-96" value="Port: 5000" style="text;html=1;align=center;verticalAlign=middle;resizable=0;points=[];autosize=1;strokeColor=none;fillColor=none;fontColor=#1A1A1A;" vertex="1" parent="U_9ZeLoZhMn-8x-L0dgF-36">
          <mxGeometry x="124.87387755102043" y="-29.00344827586207" width="70" height="20" as="geometry" />
        </mxCell>
        <mxCell id="U_9ZeLoZhMn-8x-L0dgF-101" value="proxy_pass: app-server:5000" style="text;html=1;align=center;verticalAlign=middle;resizable=0;points=[];autosize=1;strokeColor=none;fillColor=none;fontColor=#1A1A1A;" vertex="1" parent="U_9ZeLoZhMn-8x-L0dgF-36">
          <mxGeometry x="106.00387755102042" y="46.49655172413793" width="170" height="20" as="geometry" />
        </mxCell>
        <mxCell id="U_9ZeLoZhMn-8x-L0dgF-29" value="" style="sketch=0;html=1;dashed=0;whitespace=wrap;fillColor=#2875E2;strokeColor=#ffffff;points=[[0.005,0.63,0],[0.1,0.2,0],[0.9,0.2,0],[0.5,0,0],[0.995,0.63,0],[0.72,0.99,0],[0.5,1,0],[0.28,0.99,0]];shape=mxgraph.kubernetes.icon;prIcon=svc;fontColor=#1A1A1A;" vertex="1" parent="1">
          <mxGeometry x="536" y="283" width="32.94" height="38" as="geometry" />
        </mxCell>
        <mxCell id="U_9ZeLoZhMn-8x-L0dgF-37" value="Service(ClusterIP)&#xa;app-server" style="strokeColor=#dddddd;shadow=1;strokeWidth=1;rounded=1;absoluteArcSize=1;arcSize=2;fontColor=#1A1A1A;" vertex="1" parent="1">
          <mxGeometry x="542.9961224489796" y="423.00344827586207" width="183.8775510204082" height="59.58620689655172" as="geometry" />
        </mxCell>
        <mxCell id="U_9ZeLoZhMn-8x-L0dgF-38" value="" style="sketch=0;html=1;dashed=0;whitespace=wrap;fillColor=#2875E2;strokeColor=#ffffff;points=[[0.005,0.63,0],[0.1,0.2,0],[0.9,0.2,0],[0.5,0,0],[0.995,0.63,0],[0.72,0.99,0],[0.5,1,0],[0.28,0.99,0]];shape=mxgraph.kubernetes.icon;prIcon=svc;fontColor=#1A1A1A;" vertex="1" parent="1">
          <mxGeometry x="536" y="413" width="32.94" height="38" as="geometry" />
        </mxCell>
        <mxCell id="U_9ZeLoZhMn-8x-L0dgF-39" value="Service(ClusterIP)&#xa;mysql-db" style="strokeColor=#dddddd;shadow=1;strokeWidth=1;rounded=1;absoluteArcSize=1;arcSize=2;fontColor=#1A1A1A;" vertex="1" parent="1">
          <mxGeometry x="542.9961224489796" y="538.0034482758621" width="183.8775510204082" height="59.58620689655172" as="geometry" />
        </mxCell>
        <mxCell id="U_9ZeLoZhMn-8x-L0dgF-40" value="" style="sketch=0;html=1;dashed=0;whitespace=wrap;fillColor=#2875E2;strokeColor=#ffffff;points=[[0.005,0.63,0],[0.1,0.2,0],[0.9,0.2,0],[0.5,0,0],[0.995,0.63,0],[0.72,0.99,0],[0.5,1,0],[0.28,0.99,0]];shape=mxgraph.kubernetes.icon;prIcon=svc;fontColor=#1A1A1A;" vertex="1" parent="1">
          <mxGeometry x="536" y="528" width="32.94" height="38" as="geometry" />
        </mxCell>
        <mxCell id="U_9ZeLoZhMn-8x-L0dgF-42" value="Node&#xa;gke-linebot-gke-default-pool-xxxx" style="strokeColor=#dddddd;shadow=1;strokeWidth=1;rounded=1;absoluteArcSize=1;arcSize=2;fontColor=#1A1A1A;" vertex="1" parent="1">
          <mxGeometry x="514.01" y="214" width="255.99" height="50" as="geometry" />
        </mxCell>
        <mxCell id="U_9ZeLoZhMn-8x-L0dgF-41" value="" style="sketch=0;html=1;dashed=0;whitespace=wrap;fillColor=#2875E2;strokeColor=#ffffff;points=[[0.005,0.63,0],[0.1,0.2,0],[0.9,0.2,0],[0.5,0,0],[0.995,0.63,0],[0.72,0.99,0],[0.5,1,0],[0.28,0.99,0]];shape=mxgraph.kubernetes.icon;prIcon=node;fontColor=#1A1A1A;" vertex="1" parent="1">
          <mxGeometry x="494.06999999999994" y="198" width="50" height="48" as="geometry" />
        </mxCell>
        <mxCell id="U_9ZeLoZhMn-8x-L0dgF-53" value="" style="edgeStyle=orthogonalEdgeStyle;rounded=0;orthogonalLoop=1;jettySize=auto;html=1;fontColor=#1A1A1A;entryX=0;entryY=0.5;entryDx=0;entryDy=0;" edge="1" parent="1" source="U_9ZeLoZhMn-8x-L0dgF-37" target="U_9ZeLoZhMn-8x-L0dgF-46">
          <mxGeometry relative="1" as="geometry" />
        </mxCell>
        <mxCell id="U_9ZeLoZhMn-8x-L0dgF-54" value="" style="edgeStyle=orthogonalEdgeStyle;rounded=0;orthogonalLoop=1;jettySize=auto;html=1;fontColor=#1A1A1A;entryX=0;entryY=0.5;entryDx=0;entryDy=0;" edge="1" parent="1" source="U_9ZeLoZhMn-8x-L0dgF-39" target="U_9ZeLoZhMn-8x-L0dgF-48">
          <mxGeometry relative="1" as="geometry" />
        </mxCell>
        <mxCell id="U_9ZeLoZhMn-8x-L0dgF-52" value="" style="edgeStyle=orthogonalEdgeStyle;rounded=0;orthogonalLoop=1;jettySize=auto;html=1;fontColor=#1A1A1A;entryX=0;entryY=0.5;entryDx=0;entryDy=0;" edge="1" parent="1" source="U_9ZeLoZhMn-8x-L0dgF-30" target="U_9ZeLoZhMn-8x-L0dgF-45">
          <mxGeometry relative="1" as="geometry" />
        </mxCell>
        <mxCell id="U_9ZeLoZhMn-8x-L0dgF-61" value="Deployment&#xa;replicas=1" style="strokeColor=#dddddd;shadow=1;strokeWidth=1;rounded=1;absoluteArcSize=1;arcSize=2;fontColor=#1A1A1A;" vertex="1" parent="1">
          <mxGeometry x="1102" y="235" width="130" height="49" as="geometry" />
        </mxCell>
        <mxCell id="U_9ZeLoZhMn-8x-L0dgF-60" value="" style="sketch=0;html=1;dashed=0;whitespace=wrap;fillColor=#2875E2;strokeColor=#ffffff;points=[[0.005,0.63,0],[0.1,0.2,0],[0.9,0.2,0],[0.5,0,0],[0.995,0.63,0],[0.72,0.99,0],[0.5,1,0],[0.28,0.99,0]];shape=mxgraph.kubernetes.icon;prIcon=deploy;dashPattern=1 2;fontColor=#1A1A1A;" vertex="1" parent="1">
          <mxGeometry x="1082" y="212" width="50" height="48" as="geometry" />
        </mxCell>
        <mxCell id="U_9ZeLoZhMn-8x-L0dgF-62" value="" style="fontSize=12;html=1;endArrow=blockThin;endFill=1;rounded=0;strokeWidth=2;endSize=4;startSize=4;dashed=0;strokeColor=#9E9E9E;fontColor=#1A1A1A;exitX=0;exitY=0.75;exitDx=0;exitDy=0;entryX=1;entryY=0.5;entryDx=0;entryDy=0;" edge="1" parent="1" source="U_9ZeLoZhMn-8x-L0dgF-61" target="U_9ZeLoZhMn-8x-L0dgF-45">
          <mxGeometry width="100" relative="1" as="geometry">
            <mxPoint x="1090" y="271" as="sourcePoint" />
            <mxPoint x="1190" y="271" as="targetPoint" />
          </mxGeometry>
        </mxCell>
        <mxCell id="U_9ZeLoZhMn-8x-L0dgF-70" value="Deployment&#xa;replicas=1" style="strokeColor=#dddddd;shadow=1;strokeWidth=1;rounded=1;absoluteArcSize=1;arcSize=2;fontColor=#1A1A1A;" vertex="1" parent="1">
          <mxGeometry x="1103" y="351" width="130" height="49" as="geometry" />
        </mxCell>
        <mxCell id="U_9ZeLoZhMn-8x-L0dgF-71" value="" style="sketch=0;html=1;dashed=0;whitespace=wrap;fillColor=#2875E2;strokeColor=#ffffff;points=[[0.005,0.63,0],[0.1,0.2,0],[0.9,0.2,0],[0.5,0,0],[0.995,0.63,0],[0.72,0.99,0],[0.5,1,0],[0.28,0.99,0]];shape=mxgraph.kubernetes.icon;prIcon=deploy;dashPattern=1 2;fontColor=#1A1A1A;" vertex="1" parent="1">
          <mxGeometry x="1083" y="328" width="50" height="48" as="geometry" />
        </mxCell>
        <mxCell id="U_9ZeLoZhMn-8x-L0dgF-72" value="" style="fontSize=12;html=1;endArrow=blockThin;endFill=1;rounded=0;strokeWidth=2;endSize=4;startSize=4;dashed=0;strokeColor=#9E9E9E;fontColor=#1A1A1A;exitX=0;exitY=0.75;exitDx=0;exitDy=0;entryX=1;entryY=0.5;entryDx=0;entryDy=0;" edge="1" parent="1" source="U_9ZeLoZhMn-8x-L0dgF-70" target="U_9ZeLoZhMn-8x-L0dgF-46">
          <mxGeometry width="100" relative="1" as="geometry">
            <mxPoint x="1091" y="390" as="sourcePoint" />
            <mxPoint x="1070.06" y="430" as="targetPoint" />
          </mxGeometry>
        </mxCell>
        <mxCell id="U_9ZeLoZhMn-8x-L0dgF-77" value="PersistentVolume&#xa;name: mysql-pv-volume" style="strokeColor=#dddddd;shadow=1;strokeWidth=1;rounded=1;absoluteArcSize=1;arcSize=2;fontColor=#1A1A1A;" vertex="1" parent="1">
          <mxGeometry x="1087" y="566" width="153" height="46" as="geometry" />
        </mxCell>
        <mxCell id="U_9ZeLoZhMn-8x-L0dgF-78" value="" style="fontSize=12;html=1;endArrow=blockThin;endFill=1;rounded=0;strokeWidth=2;endSize=4;startSize=4;dashed=0;strokeColor=#9E9E9E;fontColor=#1A1A1A;entryX=0;entryY=0.5;entryDx=0;entryDy=0;exitX=1;exitY=0.75;exitDx=0;exitDy=0;" edge="1" parent="1" source="U_9ZeLoZhMn-8x-L0dgF-48" target="U_9ZeLoZhMn-8x-L0dgF-77">
          <mxGeometry width="100" relative="1" as="geometry">
            <mxPoint x="1002" y="581" as="sourcePoint" />
            <mxPoint x="1012.06" y="577" as="targetPoint" />
            <Array as="points" />
          </mxGeometry>
        </mxCell>
        <mxCell id="U_9ZeLoZhMn-8x-L0dgF-82" value="ConfigMap&#xa;- init.sql" style="strokeColor=#dddddd;shadow=1;strokeWidth=1;rounded=1;absoluteArcSize=1;arcSize=2;fontColor=#1A1A1A;" vertex="1" parent="1">
          <mxGeometry x="779" y="668" width="130" height="49" as="geometry" />
        </mxCell>
        <mxCell id="U_9ZeLoZhMn-8x-L0dgF-83" value="" style="sketch=0;html=1;dashed=0;whitespace=wrap;fillColor=#2875E2;strokeColor=#ffffff;points=[[0.005,0.63,0],[0.1,0.2,0],[0.9,0.2,0],[0.5,0,0],[0.995,0.63,0],[0.72,0.99,0],[0.5,1,0],[0.28,0.99,0]];shape=mxgraph.kubernetes.icon;prIcon=cm;dashPattern=1 2;fontColor=#1A1A1A;" vertex="1" parent="1">
          <mxGeometry x="759" y="634" width="50" height="48" as="geometry" />
        </mxCell>
        <mxCell id="U_9ZeLoZhMn-8x-L0dgF-75" value="" style="fontSize=12;html=1;endArrow=blockThin;endFill=1;rounded=0;strokeWidth=2;endSize=4;startSize=4;dashed=0;strokeColor=#9E9E9E;fontColor=#1A1A1A;exitX=0;exitY=0.75;exitDx=0;exitDy=0;entryX=1;entryY=0.25;entryDx=0;entryDy=0;" edge="1" parent="1" source="U_9ZeLoZhMn-8x-L0dgF-73" target="U_9ZeLoZhMn-8x-L0dgF-48">
          <mxGeometry width="100" relative="1" as="geometry">
            <mxPoint x="1091" y="526" as="sourcePoint" />
            <mxPoint x="1070.06" y="566" as="targetPoint" />
          </mxGeometry>
        </mxCell>
        <mxCell id="U_9ZeLoZhMn-8x-L0dgF-84" value="" style="fontSize=12;html=1;endArrow=blockThin;endFill=1;rounded=0;strokeWidth=2;endSize=4;startSize=4;dashed=0;strokeColor=#9E9E9E;fontColor=#1A1A1A;entryX=0.5;entryY=0;entryDx=0;entryDy=0;exitX=0.5;exitY=1;exitDx=0;exitDy=0;" edge="1" parent="1" source="U_9ZeLoZhMn-8x-L0dgF-48" target="U_9ZeLoZhMn-8x-L0dgF-82">
          <mxGeometry width="100" relative="1" as="geometry">
            <mxPoint x="900" y="601" as="sourcePoint" />
            <mxPoint x="1080.06" y="577" as="targetPoint" />
          </mxGeometry>
        </mxCell>
        <mxCell id="U_9ZeLoZhMn-8x-L0dgF-73" value="Deployment&#xa;replicas=1" style="strokeColor=#dddddd;shadow=1;strokeWidth=1;rounded=1;absoluteArcSize=1;arcSize=2;fontColor=#1A1A1A;" vertex="1" parent="1">
          <mxGeometry x="1103" y="449" width="130" height="49" as="geometry" />
        </mxCell>
        <mxCell id="U_9ZeLoZhMn-8x-L0dgF-74" value="" style="sketch=0;html=1;dashed=0;whitespace=wrap;fillColor=#2875E2;strokeColor=#ffffff;points=[[0.005,0.63,0],[0.1,0.2,0],[0.9,0.2,0],[0.5,0,0],[0.995,0.63,0],[0.72,0.99,0],[0.5,1,0],[0.28,0.99,0]];shape=mxgraph.kubernetes.icon;prIcon=deploy;dashPattern=1 2;fontColor=#1A1A1A;" vertex="1" parent="1">
          <mxGeometry x="1083" y="424" width="50" height="48" as="geometry" />
        </mxCell>
        <mxCell id="U_9ZeLoZhMn-8x-L0dgF-87" value="Secret&#xa;- password: xxxx" style="strokeColor=#dddddd;shadow=1;strokeWidth=1;rounded=1;absoluteArcSize=1;arcSize=2;fontColor=#1A1A1A;" vertex="1" parent="1">
          <mxGeometry x="950" y="665" width="130" height="49" as="geometry" />
        </mxCell>
        <mxCell id="U_9ZeLoZhMn-8x-L0dgF-88" value="" style="fontSize=12;html=1;endArrow=blockThin;endFill=1;rounded=0;strokeWidth=2;endSize=4;startSize=4;dashed=0;strokeColor=#9E9E9E;fontColor=#1A1A1A;entryX=0.5;entryY=0;entryDx=0;entryDy=0;exitX=0.5;exitY=1;exitDx=0;exitDy=0;" edge="1" parent="1" target="U_9ZeLoZhMn-8x-L0dgF-87" source="U_9ZeLoZhMn-8x-L0dgF-48">
          <mxGeometry width="100" relative="1" as="geometry">
            <mxPoint x="1010" y="541" as="sourcePoint" />
            <mxPoint x="1230.06" y="580.56" as="targetPoint" />
          </mxGeometry>
        </mxCell>
        <mxCell id="U_9ZeLoZhMn-8x-L0dgF-76" value="" style="sketch=0;html=1;dashed=0;whitespace=wrap;fillColor=#2875E2;strokeColor=#ffffff;points=[[0.005,0.63,0],[0.1,0.2,0],[0.9,0.2,0],[0.5,0,0],[0.995,0.63,0],[0.72,0.99,0],[0.5,1,0],[0.28,0.99,0]];shape=mxgraph.kubernetes.icon;prIcon=pv;dashPattern=1 2;fontColor=#1A1A1A;" vertex="1" parent="1">
          <mxGeometry x="1087" y="523" width="49" height="48" as="geometry" />
        </mxCell>
        <mxCell id="U_9ZeLoZhMn-8x-L0dgF-81" value="" style="sketch=0;html=1;dashed=0;whitespace=wrap;fillColor=#2875E2;strokeColor=#ffffff;points=[[0.005,0.63,0],[0.1,0.2,0],[0.9,0.2,0],[0.5,0,0],[0.995,0.63,0],[0.72,0.99,0],[0.5,1,0],[0.28,0.99,0]];shape=mxgraph.kubernetes.icon;prIcon=pvc;dashPattern=1 2;fontColor=#1A1A1A;" vertex="1" parent="1">
          <mxGeometry x="1132" y="523" width="50" height="48" as="geometry" />
        </mxCell>
        <mxCell id="U_9ZeLoZhMn-8x-L0dgF-89" value="" style="sketch=0;html=1;dashed=0;whitespace=wrap;fillColor=#2875E2;strokeColor=#ffffff;points=[[0.005,0.63,0],[0.1,0.2,0],[0.9,0.2,0],[0.5,0,0],[0.995,0.63,0],[0.72,0.99,0],[0.5,1,0],[0.28,0.99,0]];shape=mxgraph.kubernetes.icon;prIcon=secret;dashPattern=1 2;fontColor=#1A1A1A;" vertex="1" parent="1">
          <mxGeometry x="930" y="635" width="50" height="48" as="geometry" />
        </mxCell>
        <mxCell id="U_9ZeLoZhMn-8x-L0dgF-49" value="" style="sketch=0;html=1;dashed=0;whitespace=wrap;fillColor=#2875E2;strokeColor=#ffffff;points=[[0.005,0.63,0],[0.1,0.2,0],[0.9,0.2,0],[0.5,0,0],[0.995,0.63,0],[0.72,0.99,0],[0.5,1,0],[0.28,0.99,0]];shape=mxgraph.kubernetes.icon;prIcon=pod;fontColor=#1A1A1A;" vertex="1" parent="1">
          <mxGeometry x="830" y="501" width="50" height="48" as="geometry" />
        </mxCell>
        <mxCell id="U_9ZeLoZhMn-8x-L0dgF-90" value="metadata: linebot-nginx" style="text;html=1;align=center;verticalAlign=middle;resizable=0;points=[];autosize=1;strokeColor=none;fillColor=none;fontColor=#1A1A1A;" vertex="1" parent="1">
          <mxGeometry x="639" y="284" width="140" height="20" as="geometry" />
        </mxCell>
        <mxCell id="U_9ZeLoZhMn-8x-L0dgF-91" value="metadata: app-server" style="text;html=1;align=center;verticalAlign=middle;resizable=0;points=[];autosize=1;strokeColor=none;fillColor=none;fontColor=#1A1A1A;" vertex="1" parent="1">
          <mxGeometry x="651" y="403" width="130" height="20" as="geometry" />
        </mxCell>
        <mxCell id="U_9ZeLoZhMn-8x-L0dgF-92" value="" style="fontSize=12;html=1;endArrow=blockThin;endFill=1;rounded=0;strokeWidth=2;endSize=4;startSize=4;dashed=0;strokeColor=#4284F3;startArrow=blockThin;startFill=1;entryX=0.5;entryY=0;entryDx=0;entryDy=0;exitX=0.5;exitY=1;exitDx=0;exitDy=0;" edge="1" parent="1" source="U_9ZeLoZhMn-8x-L0dgF-30" target="U_9ZeLoZhMn-8x-L0dgF-37">
          <mxGeometry width="100" relative="1" as="geometry">
            <mxPoint x="611.9348979591837" y="242.5896551724138" as="sourcePoint" />
            <mxPoint x="644.9348979591837" y="291.00344827586207" as="targetPoint" />
          </mxGeometry>
        </mxCell>
        <mxCell id="U_9ZeLoZhMn-8x-L0dgF-93" value="metadata: mysql-db" style="text;html=1;align=center;verticalAlign=middle;resizable=0;points=[];autosize=1;strokeColor=none;fillColor=none;fontColor=#1A1A1A;" vertex="1" parent="1">
          <mxGeometry x="653" y="516" width="120" height="20" as="geometry" />
        </mxCell>
        <mxCell id="U_9ZeLoZhMn-8x-L0dgF-94" value="" style="fontSize=12;html=1;endArrow=blockThin;endFill=1;rounded=0;strokeWidth=2;endSize=4;startSize=4;dashed=0;strokeColor=#4284F3;startArrow=blockThin;startFill=1;entryX=0.5;entryY=0;entryDx=0;entryDy=0;exitX=0.5;exitY=1;exitDx=0;exitDy=0;" edge="1" parent="1" source="U_9ZeLoZhMn-8x-L0dgF-37" target="U_9ZeLoZhMn-8x-L0dgF-39">
          <mxGeometry width="100" relative="1" as="geometry">
            <mxPoint x="640" y="471" as="sourcePoint" />
            <mxPoint x="640" y="551" as="targetPoint" />
          </mxGeometry>
        </mxCell>
        <mxCell id="U_9ZeLoZhMn-8x-L0dgF-45" value="Pod&#xa;linebot-nginx-xxxx" style="strokeColor=#dddddd;shadow=1;strokeWidth=1;rounded=1;absoluteArcSize=1;arcSize=2;fontColor=#1A1A1A;" vertex="1" parent="1">
          <mxGeometry x="853" y="309" width="156.27669768727543" height="50" as="geometry" />
        </mxCell>
        <mxCell id="U_9ZeLoZhMn-8x-L0dgF-46" value="Pod&#xa;app-server-xxxx" style="strokeColor=#dddddd;shadow=1;strokeWidth=1;rounded=1;absoluteArcSize=1;arcSize=2;fontColor=#1A1A1A;" vertex="1" parent="1">
          <mxGeometry x="853.7233023127246" y="428" width="156.27669768727543" height="50" as="geometry" />
        </mxCell>
        <mxCell id="U_9ZeLoZhMn-8x-L0dgF-48" value="Pod&#xa;mysql-db-xxxx" style="strokeColor=#dddddd;shadow=1;strokeWidth=1;rounded=1;absoluteArcSize=1;arcSize=2;fontColor=#1A1A1A;" vertex="1" parent="1">
          <mxGeometry x="853" y="542" width="157.00000000000003" height="50" as="geometry" />
        </mxCell>
        <mxCell id="U_9ZeLoZhMn-8x-L0dgF-95" value="Port: 5000" style="text;html=1;align=center;verticalAlign=middle;resizable=0;points=[];autosize=1;strokeColor=none;fillColor=none;fontColor=#1A1A1A;" vertex="1" parent="1">
          <mxGeometry x="945.28" y="429" width="70" height="20" as="geometry" />
        </mxCell>
        <mxCell id="U_9ZeLoZhMn-8x-L0dgF-44" value="" style="sketch=0;html=1;dashed=0;whitespace=wrap;fillColor=#2875E2;strokeColor=#ffffff;points=[[0.005,0.63,0],[0.1,0.2,0],[0.9,0.2,0],[0.5,0,0],[0.995,0.63,0],[0.72,0.99,0],[0.5,1,0],[0.28,0.99,0]];shape=mxgraph.kubernetes.icon;prIcon=pod;fontColor=#1A1A1A;" vertex="1" parent="1">
          <mxGeometry x="831" y="281" width="50" height="48" as="geometry" />
        </mxCell>
        <mxCell id="U_9ZeLoZhMn-8x-L0dgF-47" value="" style="sketch=0;html=1;dashed=0;whitespace=wrap;fillColor=#2875E2;strokeColor=#ffffff;points=[[0.005,0.63,0],[0.1,0.2,0],[0.9,0.2,0],[0.5,0,0],[0.995,0.63,0],[0.72,0.99,0],[0.5,1,0],[0.28,0.99,0]];shape=mxgraph.kubernetes.icon;prIcon=pod;fontColor=#1A1A1A;" vertex="1" parent="1">
          <mxGeometry x="831" y="394" width="50" height="48" as="geometry" />
        </mxCell>
        <mxCell id="U_9ZeLoZhMn-8x-L0dgF-98" value="NodePort:&amp;nbsp;30082" style="text;html=1;align=center;verticalAlign=middle;resizable=0;points=[];autosize=1;strokeColor=none;fillColor=none;fontColor=#1A1A1A;" vertex="1" parent="1">
          <mxGeometry x="666" y="211" width="110" height="20" as="geometry" />
        </mxCell>
        <mxCell id="U_9ZeLoZhMn-8x-L0dgF-99" value="Port: 80" style="text;html=1;align=center;verticalAlign=middle;resizable=0;points=[];autosize=1;strokeColor=none;fillColor=none;fontColor=#1A1A1A;" vertex="1" parent="1">
          <mxGeometry x="950.28" y="307" width="60" height="20" as="geometry" />
        </mxCell>
        <mxCell id="U_9ZeLoZhMn-8x-L0dgF-100" value="TargetPort: 80" style="text;html=1;align=center;verticalAlign=middle;resizable=0;points=[];autosize=1;strokeColor=none;fillColor=none;fontColor=#1A1A1A;" vertex="1" parent="1">
          <mxGeometry x="743" y="339" width="90" height="20" as="geometry" />
        </mxCell>
        <mxCell id="U_9ZeLoZhMn-8x-L0dgF-103" value="service.name: linebot-nginx" style="text;html=1;align=center;verticalAlign=middle;resizable=0;points=[];autosize=1;strokeColor=none;fillColor=none;fontColor=#1A1A1A;" vertex="1" parent="1">
          <mxGeometry x="525" y="157.5" width="160" height="20" as="geometry" />
        </mxCell>
        <mxCell id="U_9ZeLoZhMn-8x-L0dgF-105" value="" style="fontSize=12;html=1;endArrow=blockThin;endFill=1;rounded=0;strokeWidth=2;endSize=4;startSize=4;dashed=0;strokeColor=#4284F3;startArrow=blockThin;startFill=1;entryX=0.5;entryY=0;entryDx=0;entryDy=0;exitX=0.5;exitY=1;exitDx=0;exitDy=0;" edge="1" parent="1" source="U_9ZeLoZhMn-8x-L0dgF-42" target="U_9ZeLoZhMn-8x-L0dgF-30">
          <mxGeometry width="100" relative="1" as="geometry">
            <mxPoint x="483.692653061225" y="174.49655172413782" as="sourcePoint" />
            <mxPoint x="652.0050000000001" y="224" as="targetPoint" />
          </mxGeometry>
        </mxCell>
        <mxCell id="U_9ZeLoZhMn-8x-L0dgF-115" value="" style="strokeColor=#dddddd;shadow=1;strokeWidth=1;rounded=1;absoluteArcSize=1;arcSize=2;" vertex="1" parent="1">
          <mxGeometry x="214.36" y="208.5" width="195.64" height="37.5" as="geometry" />
        </mxCell>
        <mxCell id="U_9ZeLoZhMn-8x-L0dgF-116" value="External IP Addresses&lt;span style=&quot;color: rgb(0 , 0 , 0)&quot;&gt;&lt;br&gt;&lt;/span&gt;" style="sketch=0;dashed=0;connectable=0;html=1;fillColor=#5184F3;strokeColor=none;shape=mxgraph.gcp2.hexIcon;prIcon=cloud_external_ip_addresses;part=1;labelPosition=right;verticalLabelPosition=middle;align=left;verticalAlign=middle;spacingLeft=5;fontColor=#999999;fontSize=12;" vertex="1" parent="U_9ZeLoZhMn-8x-L0dgF-115">
          <mxGeometry y="0.5" width="44" height="39" relative="1" as="geometry">
            <mxPoint x="5" y="-19.5" as="offset" />
          </mxGeometry>
        </mxCell>
        <mxCell id="U_9ZeLoZhMn-8x-L0dgF-118" value="" style="fontSize=12;html=1;endArrow=blockThin;endFill=1;rounded=0;strokeWidth=2;endSize=4;startSize=4;dashed=0;strokeColor=#4284F3;startArrow=blockThin;startFill=1;entryX=0.5;entryY=0;entryDx=0;entryDy=0;exitX=0.5;exitY=1;exitDx=0;exitDy=0;" edge="1" parent="1" source="_XGDpj7YCTwnzZgyufAH-45" target="_XGDpj7YCTwnzZgyufAH-27">
          <mxGeometry width="100" relative="1" as="geometry">
            <mxPoint x="479.6926530612245" y="174.49655172413793" as="sourcePoint" />
            <mxPoint x="652.0049999999999" y="224" as="targetPoint" />
          </mxGeometry>
        </mxCell>
        <mxCell id="U_9ZeLoZhMn-8x-L0dgF-119" value="Port: 3306" style="text;html=1;align=center;verticalAlign=middle;resizable=0;points=[];autosize=1;strokeColor=none;fillColor=none;fontColor=#1A1A1A;" vertex="1" parent="1">
          <mxGeometry x="942.28" y="542" width="70" height="20" as="geometry" />
        </mxCell>
      </root>
    </mxGraphModel>
  </diagram>
</mxfile>
